Coordinates
version=1
nRows=34
nColumns=38
inDegrees=no

Units are S.I. units (second, meters, Newtons, ...)
If the header above contains a line with 'inDegrees', this indicates whether rotational values are in degrees (yes) or radians (no).

endheader
time	pelvis_tilt	pelvis_list	pelvis_rotation	pelvis_tx	pelvis_ty	pelvis_tz	hip_flexion_r	hip_adduction_r	hip_rotation_r	knee_angle_r	ankle_angle_r	subtalar_angle_r	mtp_angle_r	hip_flexion_l	hip_adduction_l	hip_rotation_l	knee_angle_l	ankle_angle_l	subtalar_angle_l	mtp_angle_l	lumbar_extension	lumbar_bending	lumbar_rotation	arm_flex_r	arm_add_r	arm_rot_r	elbow_flex_r	pro_sup_r	wrist_flex_r	wrist_dev_r	arm_flex_l	arm_add_l	arm_rot_l	elbow_flex_l	pro_sup_l	wrist_flex_l	wrist_dev_l
40	2.7151	1.49949	-1.15353	0.687694	-0.202431	0.832324	0.579874	-0.1619	-0.033784	1.14138	0.335903	0	0	0.519092	-0.302239	-0.169508	1.13346	0.354113	0	0	-0.621794	0.0296564	0.00690871	0.616597	-0.244525	1.06706	0.267453	0.751146	0	0	0.41392	-0.2499	0.326225	0.425456	0.938066	0	0
40.01	2.7941	1.48725	-1.23013	0.686925	-0.204943	0.833404	0.570449	-0.159883	-0.0261579	1.14282	0.328712	0	0	0.513621	-0.300348	-0.167679	1.13927	0.346582	0	0	-0.653637	0.0315487	0.00339394	0.630275	-0.245101	1.06605	0.268321	0.754854	0	0	0.42527	-0.247817	0.31891	0.424444	0.940238	0	0
40.02	2.69839	1.50101	-1.13883	0.687571	-0.204003	0.825055	0.605335	-0.160637	-0.024815	1.17597	0.345599	0	0	0.543547	-0.302473	-0.157325	1.16788	0.366587	0	0	-0.632761	0.0319026	0.00487017	0.621979	-0.244904	1.06286	0.269335	0.761363	0	0	0.411891	-0.247582	0.305686	0.428305	0.946729	0	0
40.03	2.54063	1.49556	-0.992723	0.687069	-0.207133	0.823697	0.620963	-0.151817	-0.0319507	1.18418	0.331091	0	0	0.554165	-0.314975	-0.150565	1.17876	0.366633	0	0	-0.648572	0.0426186	0.0184329	0.636292	-0.25139	1.06278	0.272694	0.764281	0	0	0.417737	-0.239248	0.294799	0.427973	0.947391	0	0
40.04	2.53576	1.49687	-0.989743	0.686966	-0.207906	0.820079	0.633684	-0.151287	-0.0263456	1.20045	0.336329	0	0	0.565915	-0.314136	-0.145148	1.19521	0.37209	0	0	-0.653721	0.0428569	0.0180256	0.638163	-0.251996	1.05877	0.27489	0.765732	0	0	0.41666	-0.238765	0.290876	0.429791	0.946041	0	0
40.05	2.52835	1.49735	-0.984027	0.686878	-0.208702	0.816702	0.645012	-0.150259	-0.0215839	1.21547	0.34086	0	0	0.577578	-0.31434	-0.139703	1.21201	0.376053	0	0	-0.659755	0.0437147	0.0182918	0.64023	-0.252537	1.0536	0.276186	0.768295	0	0	0.416495	-0.238303	0.289297	0.430892	0.943461	0	0
40.06	2.51902	1.49702	-0.976004	0.686781	-0.20952	0.813478	0.655011	-0.148893	-0.0178708	1.22955	0.345165	0	0	0.588598	-0.315053	-0.133849	1.2284	0.379681	0	0	-0.666651	0.0450783	0.0187058	0.642531	-0.253115	1.0486	0.277441	0.771557	0	0	0.417493	-0.238002	0.28828	0.432122	0.941248	0	0
40.07	2.50931	1.49626	-0.96694	0.686638	-0.210306	0.810281	0.664425	-0.147813	-0.0151172	1.24349	0.349186	0	0	0.59942	-0.315488	-0.127106	1.24458	0.383386	0	0	-0.673768	0.0468965	0.0187702	0.64477	-0.253806	1.04427	0.279	0.774337	0	0	0.418806	-0.238262	0.288922	0.43459	0.939237	0	0
40.08	2.75596	1.49828	-1.19979	0.687357	-0.209812	0.807234	0.66054	-0.160786	-0.00157941	1.25932	0.369095	0	0	0.604801	-0.298688	-0.124847	1.26143	0.381039	0	0	-0.683387	0.0342893	-0.000769928	0.638917	-0.244266	1.03268	0.276491	0.775408	0	0	0.42088	-0.250785	0.303232	0.440092	0.934024	0	0
40.09	2.71476	1.50115	-1.15905	0.686723	-0.208394	0.800973	0.688642	-0.16082	0.00548926	1.30087	0.372987	0	0	0.618597	-0.297329	-0.115245	1.28447	0.398926	0	0	-0.675576	0.0381211	-0.00135256	0.631801	-0.246313	1.02691	0.278278	0.782467	0	0	0.411053	-0.249981	0.304111	0.442861	0.931621	0	0
40.1	2.71669	1.49712	-1.15941	0.686758	-0.211404	0.800958	0.678491	-0.159464	0.00116196	1.28547	0.375498	0	0	0.626509	-0.298464	-0.110109	1.29132	0.388895	0	0	-0.696782	0.0400902	-0.000946972	0.642646	-0.245825	1.02065	0.278891	0.783853	0	0	0.424306	-0.250423	0.306872	0.442867	0.929884	0	0
40.11	2.68859	1.50008	-1.13112	0.686288	-0.20965	0.794496	0.706498	-0.159316	0.0100884	1.32843	0.380555	0	0	0.639296	-0.296463	-0.101317	1.31422	0.408034	0	0	-0.688149	0.0422798	-0.00209364	0.633472	-0.247457	1.0137	0.281028	0.79047	0	0	0.413332	-0.25055	0.306578	0.447042	0.927438	0	0
40.12	2.66978	1.49997	-1.11088	0.68614	-0.210338	0.791183	0.715528	-0.158768	0.0113858	1.34155	0.384858	0	0	0.650445	-0.296837	-0.0949068	1.32876	0.4124	0	0	-0.693902	0.044129	-0.00231734	0.633893	-0.24767	1.00627	0.281992	0.792539	0	0	0.415224	-0.250634	0.30592	0.447905	0.925815	0	0
40.13	2.65007	1.49962	-1.08914	0.685913	-0.211009	0.787917	0.724063	-0.158758	0.0118395	1.35438	0.388976	0	0	0.661717	-0.297012	-0.0880266	1.3433	0.416366	0	0	-0.69982	0.0463605	-0.00245883	0.63429	-0.248113	0.997448	0.282795	0.793506	0	0	0.417314	-0.250629	0.306093	0.448644	0.92576	0	0
40.14	2.63957	1.49838	-1.07651	0.685652	-0.211697	0.784922	0.731064	-0.158861	0.0125231	1.36643	0.392871	0	0	0.671075	-0.296651	-0.081459	1.35652	0.42038	0	0	-0.707351	0.0484747	-0.00231001	0.635042	-0.248638	0.987353	0.283418	0.794863	0	0	0.419893	-0.250298	0.305339	0.449339	0.925994	0	0
40.15	2.90744	1.48252	-1.3543	0.684845	-0.210587	0.786028	0.712614	-0.173201	0.0264667	1.372	0.398393	0	0	0.632222	-0.285518	-0.103665	1.351	0.42809	0	0	-0.738855	0.0316096	-0.0023747	0.636842	-0.251497	0.981047	0.285023	0.795998	0	0	0.42296	-0.247108	0.302607	0.44944	0.926074	0	0
40.16	2.56426	1.47511	-0.99494	0.686882	-0.211833	0.781953	0.71507	-0.141066	0.000364054	1.37791	0.400798	0	0	0.670941	-0.317397	-0.0637514	1.37647	0.427487	0	0	-0.739538	0.0636555	0.00820594	0.635638	-0.249228	0.97486	0.284727	0.796716	0	0	0.425364	-0.251573	0.304678	0.453657	0.928385	0	0
40.17	2.5496	1.49846	-0.977825	0.684364	-0.213448	0.775238	0.758328	-0.160885	0.0113192	1.40344	0.402272	0	0	0.707526	-0.294092	-0.0574197	1.39769	0.430934	0	0	-0.721437	0.0591827	-0.00111328	0.634296	-0.253164	0.965512	0.28648	0.80526	0	0	0.421826	-0.247452	0.291815	0.456175	0.943756	0	0
40.18	2.51764	1.49905	-0.942895	0.683989	-0.213963	0.771942	0.767881	-0.161021	0.0119376	1.41549	0.405483	0	0	0.719775	-0.292445	-0.0494416	1.4105	0.434532	0	0	-0.724733	0.0625547	-0.000779366	0.633083	-0.254601	0.952959	0.286947	0.80995	0	0	0.420644	-0.246511	0.279525	0.461335	0.95583	0	0
40.19	2.47575	1.50067	-0.899084	0.683901	-0.214465	0.768542	0.778986	-0.159852	0.0135383	1.42729	0.408743	0	0	0.732876	-0.291889	-0.0426147	1.42292	0.438284	0	0	-0.725956	0.0649144	0.000549125	0.630728	-0.25548	0.93352	0.285416	0.821486	0	0	0.417064	-0.245761	0.260242	0.472016	0.97237	0	0
40.2	2.46227	1.50065	-0.884946	0.683864	-0.214747	0.765644	0.786052	-0.158381	0.0160285	1.4372	0.412637	0	0	0.741265	-0.292577	-0.0389524	1.4339	0.442624	0	0	-0.729014	0.0659483	0.00246332	0.628079	-0.25728	0.912682	0.283784	0.828933	0	0	0.411677	-0.245798	0.244073	0.487266	0.982721	0	0
40.21	2.53515	1.47452	-0.956824	0.685892	-0.213589	0.767804	0.74973	-0.141456	0.00775883	1.43101	0.41855	0	0	0.720164	-0.327329	-0.0507214	1.43928	0.441205	0	0	-0.761406	0.0712935	0.0125228	0.626487	-0.257853	0.896693	0.283519	0.831391	0	0	0.412042	-0.248978	0.235266	0.498585	0.987661	0	0
40.22	2.44555	1.49947	-0.872989	0.683316	-0.213475	0.759383	0.799394	-0.155971	0.0224119	1.46063	0.42305	0	0	0.753764	-0.303521	-0.0427953	1.46142	0.455894	0	0	-0.728653	0.0667392	0.0084299	0.616624	-0.267912	0.873579	0.287679	0.862524	0	0	0.391043	-0.241906	0.207506	0.514963	1.0043	0	0
40.23	2.44128	1.50022	-0.868536	0.68316	-0.213321	0.756837	0.806331	-0.15561	0.0254458	1.47054	0.426296	0	0	0.760897	-0.303794	-0.0407179	1.47166	0.458765	0	0	-0.728771	0.066538	0.00877508	0.610375	-0.273234	0.842125	0.294344	0.889503	0	0	0.380489	-0.241089	0.187984	0.532912	1.01632	0	0
40.24	2.44207	1.50036	-0.869049	0.683	-0.213168	0.754543	0.811964	-0.155089	0.0282714	1.47964	0.429215	0	0	0.766943	-0.304385	-0.0388772	1.48121	0.461184	0	0	-0.729244	0.0664947	0.0086675	0.604076	-0.280328	0.819466	0.305893	0.903495	0	0	0.369972	-0.240638	0.173472	0.549463	1.02479	0	0
40.25	2.44459	1.49935	-0.870571	0.682841	-0.212936	0.752571	0.815281	-0.154283	0.0299466	1.48746	0.432098	0	0	0.771363	-0.304434	-0.035591	1.48956	0.463342	0	0	-0.730833	0.0669666	0.0084662	0.595259	-0.286332	0.774475	0.322907	0.937462	0	0	0.358741	-0.238447	0.147698	0.567792	1.05127	0	0
40.26	2.47351	1.47638	-0.894856	0.684193	-0.211295	0.754135	0.783775	-0.14036	0.0168386	1.48287	0.438248	0	0	0.752541	-0.322787	-0.0282263	1.49032	0.466527	0	0	-0.752706	0.0767052	0.0142147	0.587893	-0.290053	0.753071	0.338266	0.945029	0	0	0.351259	-0.240024	0.132385	0.581443	1.05903	0	0
40.27	2.46003	1.50009	-0.882966	0.682401	-0.212218	0.74872	0.823261	-0.156714	0.0332026	1.50292	0.438052	0	0	0.780249	-0.301214	-0.030471	1.50443	0.467973	0	0	-0.729525	0.0667346	0.00317334	0.579486	-0.296782	0.726477	0.356505	0.971996	0	0	0.333892	-0.23732	0.103774	0.603529	1.07311	0	0
40.28	2.47912	1.49964	-0.900595	0.682239	-0.211816	0.747192	0.824914	-0.157358	0.0351729	1.50946	0.441255	0	0	0.782229	-0.299713	-0.0286509	1.51018	0.470533	0	0	-0.729766	0.0663663	-0.000415679	0.573216	-0.300072	0.709911	0.371335	0.983991	0	0	0.320906	-0.23858	0.0872365	0.62302	1.06955	0	0
40.29	2.5027	1.49846	-0.922427	0.68208	-0.211369	0.745949	0.824842	-0.157848	0.0368178	1.51468	0.443829	0	0	0.782947	-0.29805	-0.0266233	1.5153	0.472744	0	0	-0.730999	0.0662309	-0.00509033	0.568646	-0.301266	0.696336	0.383776	0.995044	0	0	0.308546	-0.23589	0.0520946	0.638519	1.11801	0	0
40.3	2.53856	1.49677	-0.956098	0.681925	-0.210912	0.744973	0.823522	-0.159148	0.0382064	1.51978	0.446385	0	0	0.782376	-0.295452	-0.0243787	1.52011	0.473791	0	0	-0.733047	0.0655647	-0.0104369	0.56539	-0.300831	0.687899	0.39336	1.00233	0	0	0.297168	-0.237286	0.0362492	0.65499	1.12614	0	0
40.31	2.58254	1.49533	-0.997101	0.681666	-0.210496	0.744207	0.821856	-0.16199	0.0393655	1.52469	0.449076	0	0	0.781322	-0.291376	-0.0223883	1.52402	0.474136	0	0	-0.734974	0.0645621	-0.016618	0.563516	-0.29987	0.690293	0.400611	0.992475	0	0	0.288074	-0.241362	0.033907	0.668041	1.11117	0	0
40.32	2.60937	1.49404	-1.02221	0.681576	-0.210148	0.743611	0.82082	-0.163167	0.0402961	1.52839	0.450692	0	0	0.780547	-0.289435	-0.0212616	1.52681	0.474729	0	0	-0.73671	0.0633403	-0.0216828	0.561908	-0.295998	0.678935	0.404724	1.01241	0	0	0.279269	-0.241334	0.0103661	0.679913	1.1469	0	0
40.33	2.6488	1.49131	-1.06049	0.681511	-0.20971	0.743403	0.817065	-0.164234	0.0415397	1.53089	0.452311	0	0	0.776625	-0.288087	-0.0214364	1.52849	0.47522	0	0	-0.739954	0.0615731	-0.026026	0.561019	-0.291736	0.673965	0.406501	1.01696	0	0	0.272178	-0.243191	-0.00439089	0.690478	1.15312	0	0
